<?xml version="1.0" encoding="UTF-8"?>
<svg width="50px" height="48px" viewBox="0 0 50 48" version="1.1" xmlns="http://www.w3.org/2000/svg" xmlns:xlink="http://www.w3.org/1999/xlink">
    <title>arrow gauche</title>
    <g id="post-release" stroke="none" stroke-width="1" fill="none" fill-rule="evenodd">
        <g id="Clonex_v1_Sale_1440px-Copy-20" transform="translate(-1096.000000, -228.000000)" stroke="#FFFFFF">
            <g id="Group-5" transform="translate(254.649312, 214.000000)">
                <g id="arrow-gauche" transform="translate(842.000000, 14.000000)">
                    <path d="M48.5,0.5 L48.5,46 C48.5,46.4142136 48.3321068,46.7892136 48.0606602,47.0606602 C47.7892136,47.3321068 47.4142136,47.5 47,47.5 L47,47.5 L8.20710678,47.5 L0.939339828,40.232233 C0.658035261,39.9509285 0.5,39.5693976 0.5,39.1715729 L0.5,39.1715729 L0.5,2 C0.5,1.58578644 0.667893219,1.21078644 0.939339828,0.939339828 C1.21078644,0.667893219 1.58578644,0.5 2,0.5 L2,0.5 L48.5,0.5 Z" id="Rectangle-Copy-35" transform="translate(24.500000, 24.000000) scale(1, -1) translate(-24.500000, -24.000000) "></path>
                    <polyline id="Path-35-Copy" stroke-width="2" stroke-linecap="round" stroke-linejoin="round" points="27.5 19 22 24.5 27.5 30"></polyline>
                </g>
            </g>
        </g>
    </g>
</svg>