<?xml version="1.0" encoding="UTF-8"?>
<svg width="50px" height="48px" viewBox="0 0 50 48" version="1.1" xmlns="http://www.w3.org/2000/svg" xmlns:xlink="http://www.w3.org/1999/xlink">
    <title>arrow droit</title>
    <g id="post-release" stroke="none" stroke-width="1" fill="none" fill-rule="evenodd">
        <g id="Clonex_v1_Sale_1440px-Copy-20" transform="translate(-1149.000000, -228.000000)" stroke="#FFFFFF">
            <g id="Group-5" transform="translate(254.649312, 214.000000)">
                <g id="arrow-droit" transform="translate(895.000000, 14.000000)">
                    <path d="M40.7928932,0.5 L48.0606602,7.76776695 C48.3419647,8.04907152 48.5,8.43060239 48.5,8.82842712 L48.5,8.82842712 L48.5,46 C48.5,46.4142136 48.3321068,46.7892136 48.0606602,47.0606602 C47.7892136,47.3321068 47.4142136,47.5 47,47.5 L47,47.5 L2,47.5 C1.58578644,47.5 1.21078644,47.3321068 0.939339828,47.0606602 C0.667893219,46.7892136 0.5,46.4142136 0.5,46 L0.5,46 L0.5,2 C0.5,1.58578644 0.667893219,1.21078644 0.939339828,0.939339828 C1.21078644,0.667893219 1.58578644,0.5 2,0.5 L2,0.5 L40.7928932,0.5 Z" id="Rectangle-Copy-36" transform="translate(24.500000, 24.000000) scale(1, -1) translate(-24.500000, -24.000000) "></path>
                    <polyline id="Path-35-Copy-2" stroke-width="2" stroke-linecap="round" stroke-linejoin="round" transform="translate(25.750000, 24.500000) scale(-1, 1) translate(-25.750000, -24.500000) " points="28.5 19 23 24.5 28.5 30"></polyline>
                </g>
            </g>
        </g>
    </g>
</svg>