<?xml version="1.0" encoding="UTF-8"?>
<svg width="108px" height="48px" viewBox="0 0 108 48" version="1.1" xmlns="http://www.w3.org/2000/svg" xmlns:xlink="http://www.w3.org/1999/xlink">
    <title>Rectangle Copy 38</title>
    <g id="post-release" stroke="none" stroke-width="1" fill="none" fill-rule="evenodd">
        <g id="Clonex_v1_Sale_1440px-Copy-20" transform="translate(-255.000000, -158.000000)" stroke="#FFFFFF">
            <g id="Group-5" transform="translate(254.649312, 158.000000)">
                <path d="M100.143581,0.5 L107.411348,7.76776695 C107.692652,8.04907152 107.850688,8.43060239 107.850688,8.82842712 L107.850688,8.82842712 L107.850688,46 C107.850688,46.4142136 107.682794,46.7892136 107.411348,47.0606602 C107.139901,47.3321068 106.764901,47.5 106.350688,47.5 L106.350688,47.5 L8.55779449,47.5 L1.29002753,40.232233 C1.00872296,39.9509285 0.850687704,39.5693976 0.850687704,39.1715729 L0.850687704,39.1715729 L0.850687704,2 C0.850687704,1.58578644 1.01858092,1.21078644 1.29002753,0.939339828 C1.56147414,0.667893219 1.93647414,0.5 2.3506877,0.5 L2.3506877,0.5 L100.143581,0.5 Z" id="Rectangle-Copy-38" transform="translate(54.350688, 24.000000) scale(1, -1) translate(-54.350688, -24.000000) "></path>
            </g>
        </g>
    </g>
</svg>